<svg xmlns="http://www.w3.org/2000/svg" width="500" height="233.87399" viewBox="0 0 499.99998 233.87399"><defs><clipPath id="a" clipPathUnits="userSpaceOnUse"><path d="M0 600h800V0H0Z"/></clipPath></defs><path d="M94.415 598.603h22.642V494.426H94.415Z" style="fill:#231f20;fill-opacity:1;fill-rule:nonzero;stroke:none;stroke-width:5.84739" transform="matrix(1.33333 0 0 -1.33333 0 800)"/><path d="M0 0h-5.55v4.139L0 4.158Zm-9.361 7.684V-3.527H3.834V7.704Z" style="fill:#231f20;fill-opacity:1;fill-rule:nonzero;stroke:none" transform="matrix(7.79652 0 0 -7.79652 72.983 67.093)"/><path d="M0 0h3.895v-7.715h9.67v-3.474H-.047Z" style="fill:#231f20;fill-opacity:1;fill-rule:nonzero;stroke:none" transform="matrix(7.79652 0 0 -7.79652 51.2 146.07)"/><path d="M0 0h-5.678l.041 4.184H0Zm-9.445 7.715-.111-11.262H3.812V7.715Z" style="fill:#231f20;fill-opacity:1;fill-rule:nonzero;stroke:none" transform="matrix(7.79652 0 0 -7.79652 263.217 206.22)"/><path d="M0 0v-3.504h15.97v3.441z" style="fill:#231f20;fill-opacity:1;fill-rule:nonzero;stroke:none" transform="matrix(7.79652 0 0 -7.79652 178.922 106.768)"/><g clip-path="url(#a)" transform="matrix(7.79652 0 0 -7.79652 -2869.59 2453.01)"><path d="M0 0c0 1.591 1.3 2.884 2.896 2.884A2.893 2.893 0 0 0 5.792 0a2.89 2.89 0 0 0-2.896-2.881A2.89 2.89 0 0 0 0 0m-3.701 0c0-3.631 2.959-6.582 6.597-6.582 3.636 0 6.595 2.951 6.595 6.582 0 3.636-2.959 6.584-6.595 6.584-3.638 0-6.597-2.948-6.597-6.584" style="fill:#231f20;fill-opacity:1;fill-rule:nonzero;stroke:none" transform="translate(396.209 308.045)"/><path d="M0 0h3.508l5.978-9.661-3.091-2.361-4.659 8.306-4.761-8.306-3.128 2.258z" style="fill:#231f20;fill-opacity:1;fill-rule:nonzero;stroke:none" transform="translate(414.92 313.688)"/><path d="M0 0h3.825v-4.344h2.641V-8.17H3.759v-9.659H-.138z" style="fill:#231f20;fill-opacity:1;fill-rule:nonzero;stroke:none" transform="translate(425.726 314.387)"/></g></svg>